<svg xmlns="http://www.w3.org/2000/svg" xmlns:xlink="http://www.w3.org/1999/xlink" width="32" height="32" viewBox="0 0 32 32">
  <defs>
    <path id="a" d="M8.25 15C4.52775 15 1.5 11.97225 1.5 8.25S4.52775 1.5 8.25 1.5 15 4.52775 15 8.25 11.97225 15 8.25 15m9.53025 1.71975l-3.1815-3.1815c-.00375-.00375-.00825-.0045-.012-.00825C15.78 12.099 16.5 10.25925 16.5 8.25 16.5 3.69375 12.80625 0 8.25 0S0 3.69375 0 8.25s3.69375 8.25 8.25 8.25c2.00925 0 3.849-.72 5.28-1.91325.00375.00375.0045.00825.00825.012l3.1815 3.1815C16.866 17.9265 17.058 18 17.25 18s.384-.0735.53025-.21975c.29325-.29325.29325-.76725 0-1.0605"/>
  </defs>
  <use fill="#001319" xlink:href="#a" fill-rule="evenodd" transform="translate(7 7)"/>
</svg>
